<?xml version="1.0" encoding="utf-8"?>
<!-- Generator: Adobe Illustrator 24.0.0, SVG Export Plug-In . SVG Version: 6.00 Build 0)  -->
<svg version="1.1" id="cemetery-JP-15" xmlns="http://www.w3.org/2000/svg" xmlns:xlink="http://www.w3.org/1999/xlink" x="0px"
	 y="0px" viewBox="0 0 15 15" style="enable-background:new 0 0 15 15;" xml:space="preserve">
<style type="text/css">
	.st0{fill:#FF00FF;}
</style>
<path class="st0" d="M11.5,11h-3V2.5c0-0.5-0.4-1-0.9-1c0,0-0.1,0-0.1,0c-0.5,0-1,0.4-1,0.9c0,0,0,0.1,0,0.1V11h-3c-0.6,0-1,0.4-1,1
	s0.4,1,1,1h8c0.5,0,1-0.4,1-0.9c0,0,0-0.1,0-0.1C12.5,11.4,12.1,11,11.5,11z"/>
</svg>
